<?xml version="1.0" encoding="utf-8"?>
<!-- Generator: Adobe Illustrator 15.1.0, SVG Export Plug-In . SVG Version: 6.00 Build 0)  -->
<!DOCTYPE svg PUBLIC "-//W3C//DTD SVG 1.1//EN" "http://www.w3.org/Graphics/SVG/1.1/DTD/svg11.dtd" [
	<!ENTITY ns_flows "http://ns.adobe.com/Flows/1.0/">
	<!ENTITY ns_extend "http://ns.adobe.com/Extensibility/1.0/">
	<!ENTITY ns_ai "http://ns.adobe.com/AdobeIllustrator/10.0/">
	<!ENTITY ns_graphs "http://ns.adobe.com/Graphs/1.0/">
	<!ENTITY ns_vars "http://ns.adobe.com/Variables/1.0/">
	<!ENTITY ns_imrep "http://ns.adobe.com/ImageReplacement/1.0/">
	<!ENTITY ns_sfw "http://ns.adobe.com/SaveForWeb/1.0/">
	<!ENTITY ns_custom "http://ns.adobe.com/GenericCustomNamespace/1.0/">
	<!ENTITY ns_adobe_xpath "http://ns.adobe.com/XPath/1.0/">
]>
<svg version="1.1"
	 xmlns:x="&ns_extend;" xmlns:i="&ns_ai;" xmlns:graph="&ns_graphs;" i:viewOrigin="-58 53" i:rulerOrigin="58 2" i:pageBounds="-58 53 107 -2"
	 xmlns="http://www.w3.org/2000/svg" xmlns:xlink="http://www.w3.org/1999/xlink" xmlns:a="http://ns.adobe.com/AdobeSVGViewerExtensions/3.0/"
	 x="0px" y="0px" width="165px" height="55px" viewBox="0 0 165 55" enable-background="new 0 0 165 55" xml:space="preserve">
<metadata>
	<variableSets  xmlns="http://ns.adobe.com/Variables/1.0/">
		<variableSet  locked="none" varSetName="binding1">
			<variables></variables>
			<v:sampleDataSets  xmlns:v="http://ns.adobe.com/Variables/1.0/" xmlns="http://ns.adobe.com/GenericCustomNamespace/1.0/">
				</v:sampleDataSets>
		</variableSet>
	</variableSets>
</metadata>
<g id="Layer_1" i:layer="yes" i:dimmedPercent="50" i:rgbTrio="#4F008000FFFF">
	<g>
		<g i:knockout="Off">
			<path i:knockout="Off" fill="#F47D30" d="M85.811,47.662h2.199c0.368,0,0.723,0.059,1.064,0.172
				c0.342,0.111,0.645,0.285,0.906,0.516c0.264,0.23,0.474,0.521,0.631,0.871c0.158,0.35,0.237,0.76,0.237,1.234
				c0,0.479-0.091,0.893-0.272,1.242c-0.181,0.35-0.415,0.639-0.702,0.867c-0.286,0.227-0.604,0.398-0.954,0.512
				s-0.692,0.17-1.028,0.17h-2.081V47.662z M87.544,52.348c0.311,0,0.604-0.037,0.879-0.107c0.277-0.07,0.517-0.182,0.722-0.332
				c0.206-0.148,0.367-0.342,0.485-0.582s0.178-0.531,0.178-0.871c0-0.336-0.053-0.625-0.158-0.867
				c-0.104-0.242-0.251-0.438-0.438-0.588s-0.407-0.26-0.662-0.332c-0.256-0.07-0.535-0.105-0.84-0.105h-0.907v3.785H87.544z"/>
			<path i:knockout="Off" fill="#F47D30" d="M92.03,47.662h0.994v2.225h2.609v-2.225h0.994v5.584h-0.994v-2.461h-2.609v2.461H92.03
				V47.662z"/>
			<path i:knockout="Off" fill="#F47D30" d="M99.915,47.662h0.859l2.405,5.584h-1.136l-0.521-1.277h-2.42l-0.505,1.277h-1.111
				L99.915,47.662z M101.177,51.117l-0.859-2.271l-0.875,2.271H101.177z"/>
			<path i:knockout="Off" fill="#F47D30" d="M104.039,47.662h0.992v2.367h0.048l2.312-2.367h1.34l-2.61,2.58l2.783,3.004h-1.395
				l-2.422-2.744h-0.056v2.744h-0.992V47.662z"/>
			<path i:knockout="Off" fill="#F47D30" d="M111.482,47.662h0.858l2.405,5.584h-1.136l-0.521-1.277h-2.42l-0.505,1.277h-1.111
				L111.482,47.662z M112.743,51.117l-0.859-2.271l-0.875,2.271H112.743z"/>
		</g>
		<polygon i:knockout="Off" fill="#F48120" points="16.786,33.068 9.623,31.148 4.368,25.904 2.458,18.73 4.368,11.553 9.623,6.313 
			16.786,4.391 23.963,6.313 29.203,11.553 31.126,18.73 29.203,25.904 23.963,31.148 16.786,33.068 		"/>
		<path i:knockout="Off" fill="#EF5023" d="M9.86,7.154c8.231-1.92,16.025,4.479,12.741,12.475c0,0-1.438,3.59-5.298,3.893
			c-3.226,0.258-4.531-2.059-4.834-2.711c-0.495-1.08-0.439-2.766,0.293-4.004c0.999-1.664,2.181-2.104,3.306-2.25
			c0.955-0.123,3.182,0.428,4.093,2.871c-0.089-0.34-0.046-3.039-2.722-4.727c-3.148-2.014-6.411-0.674-8.108,0.699
			c-2.046,1.641-3.263,4.283-2.689,7.84c0.483,3.08,2.409,5.576,5.443,7.195c3.352,1.799,7.772,1.844,11.169-0.135
			c3.238-1.879,5.41-5.207,5.971-7.186c0.767-2.645,1.316-4.994-0.866-9.078C26.099,7.822,18.406,2.477,9.86,7.154"/>
		<path i:knockout="Off" fill="#6D0020" d="M19.494,18.486l-1.199,0.035H18.28c-0.017-0.131-0.049-0.256-0.097-0.369l1.07-0.574
			l11.296-6.596l-0.174-0.303L19.02,17.174l-1.017,0.621l-0.021,0.014c-0.076-0.104-0.166-0.193-0.269-0.275l0.632-1.039
			l6.444-11.27l0.048-0.084l-0.303-0.176l-6.596,11.303l-0.56,1.043l-0.014,0.023c-0.119-0.051-0.239-0.082-0.37-0.096l0.036-1.221
			L16.963,3.041l-0.001-0.098h-0.349l-0.058,13.078l0.035,1.191v0.023c-0.13,0.016-0.256,0.049-0.37,0.096l-0.585-1.068L9.051,4.965
			L8.748,5.141l6.483,11.357l0.627,1.01l0.014,0.025c-0.101,0.076-0.192,0.168-0.275,0.273l-1.034-0.633L3.208,10.68l-0.173,0.303
			l11.299,6.598l1.046,0.561l0.022,0.012c-0.048,0.115-0.081,0.242-0.096,0.371l-1.229-0.037l-12.98,0.068H1v0.35l13.08,0.057
			l1.189-0.033h0.035c0.015,0.129,0.046,0.256,0.094,0.371l-1.067,0.584L3.119,26.416l-0.082,0.047l0.168,0.32l11.361-6.496
			l1.03-0.643c0.04,0.045,0.079,0.094,0.121,0.143c0.047,0.049,0.102,0.094,0.154,0.135l-0.643,1.043l-6.48,11.354l0.303,0.174
			l6.584-11.307l0.576-1.055l0.006-0.014c0.116,0.047,0.238,0.08,0.371,0.104l-0.035,1.221l0.056,12.977l0.001,0.098h0.349
			l0.069-13.078l-0.035-1.201l-0.001-0.018c0.135-0.021,0.257-0.057,0.37-0.104l0.575,1.072l6.546,11.221l0.048,0.084l0.303-0.174
			l-6.494-11.355l-0.624-1.031l-0.01-0.014c0.106-0.084,0.195-0.174,0.274-0.275l1.038,0.645l11.355,6.496l0.169-0.32l-11.297-6.58
			l-1.052-0.578l-0.011-0.006c0.045-0.113,0.078-0.24,0.094-0.371l1.216,0.033l12.979-0.055l0.097-0.002v-0.35L19.494,18.486
			L19.494,18.486z M16.786,19.771c-0.575,0-1.042-0.467-1.042-1.041c0-0.576,0.467-1.043,1.042-1.043
			c0.576,0,1.042,0.467,1.042,1.043C17.828,19.305,17.362,19.771,16.786,19.771L16.786,19.771z"/>
		<path i:knockout="Off" fill="#F48120" d="M96.754,8.863c-1.76,0-3.254,0.213-4.451,0.627c-1.211,0.426-2.377,0.918-3.521,1.469
			c-0.547-0.516-1.332-0.998-2.319-1.436c-0.997-0.447-2.408-0.66-4.235-0.66c-1.302,0-2.444,0.133-3.441,0.416
			c-0.986,0.268-1.86,0.559-2.612,0.852l-4.382-1.469l-0.022,24.68h6.399V15.51c0.528-0.27,1.099-0.494,1.691-0.717
			c0.607-0.215,1.392-0.314,2.367-0.314c1.108,0,1.938,0.414,2.478,1.242c0.537,0.83,0.804,2.209,0.804,4.137v13.484h6.401V18.58
			c0-0.482-0.046-0.984-0.124-1.514c-0.079-0.527-0.146-0.85-0.168-0.977c0.617-0.49,1.268-0.861,1.949-1.117
			c0.685-0.27,1.503-0.404,2.445-0.404c1.277,0,2.128,0.504,2.589,1.502c0.46,0.984,0.685,2.264,0.685,3.832v13.439h6.354V18.637
			c0-2.936-0.729-5.289-2.174-7.082C102.021,9.76,99.778,8.863,96.754,8.863"/>
		<path i:knockout="Off" fill="#F48120" d="M129.054,12.258c-0.537-0.93-1.21-1.658-2.028-2.195
			c-0.817-0.539-1.683-0.918-2.612-1.133c-0.931-0.213-1.803-0.314-2.622-0.314c-1.557,0-3.227,0.168-5.01,0.516
			c-1.772,0.34-3.575,1.066-5.392,2.174l2.591,5.125c1.13-0.842,2.331-1.447,3.585-1.828c1.257-0.381,2.421-0.561,3.498-0.561
			c0.75,0,1.344,0.203,1.78,0.582c0.438,0.393,0.662,0.887,0.662,1.467v1.021c-1.401,0-2.848,0.102-4.326,0.301
			c-1.478,0.191-2.824,0.607-4.035,1.248c-1.198,0.639-2.195,1.523-2.98,2.666c-0.774,1.133-1.167,2.633-1.167,4.494
			c0,0.941,0.203,1.871,0.607,2.779c0.402,0.92,0.964,1.748,1.659,2.498c0.704,0.74,1.521,1.344,2.442,1.805
			c0.931,0.449,1.938,0.684,3.014,0.684c0.517,0,1.088-0.012,1.704-0.045c0.626-0.033,1.232-0.09,1.827-0.145
			c0.605-0.08,1.177-0.148,1.691-0.225c0.516-0.09,0.931-0.156,1.222-0.225l4.686,1.557V15.801
			C129.85,14.365,129.591,13.178,129.054,12.258 M123.506,27.668c-0.168,0.068-0.403,0.135-0.739,0.203
			c-0.325,0.055-0.673,0.111-1.043,0.168c-0.381,0.043-0.773,0.092-1.177,0.123c-0.404,0.035-0.774,0.045-1.099,0.045
			c-0.55,0-1.019-0.236-1.39-0.707c-0.382-0.469-0.561-1.041-0.561-1.68c0-0.729,0.17-1.301,0.504-1.76
			c0.349-0.461,0.796-0.82,1.379-1.055c0.562-0.246,1.213-0.402,1.929-0.492c0.705-0.08,1.444-0.121,2.196-0.121V27.668
			L123.506,27.668z"/>
		<path i:knockout="Off" fill="#F48120" d="M147.077,8.717c-1.178,0-2.319,0.18-3.439,0.563c-1.121,0.367-2.03,0.816-2.713,1.344
			h-0.201l-3.958-2.455v25.229h6.399V16.82c0.459-0.875,1.031-1.457,1.716-1.762c0.685-0.289,1.356-0.436,2.005-0.436
			c0.616,0,1.244,0.146,1.905,0.436c0.651,0.305,1.256,0.719,1.806,1.279l3.138-5.469c-0.829-0.719-1.793-1.266-2.913-1.625
			C149.7,8.887,148.444,8.717,147.077,8.717"/>
		<polygon i:knockout="Off" fill="#F48120" points="157.602,9.828 157.602,33.342 164,33.342 164,7.193 157.602,9.828 		"/>
		<path i:knockout="Off" fill="#F48120" d="M56,4.223l-6.087-2.469L35.893,33.33h8.058l2.701-7.041h10.502l2.634,7.107h7.32
			L56,4.223L56,4.223z M49.062,20.24l3.015-7.713l2.914,7.713H49.062L49.062,20.24z"/>
	</g>
</g>
</svg>
